<svg width="100" height="100" viewBox="0 0 100 100" fill="none" xmlns="http://www.w3.org/2000/svg">
  <rect width="100" height="100" rx="20" fill="#6200EE" />
  <rect x="25" y="25" width="50" height="35" rx="5" fill="white" />
  <rect x="30" y="35" width="40" height="5" rx="2.5" fill="#6200EE" />
  <rect x="30" y="45" width="30" height="5" rx="2.5" fill="#6200EE" />
  <rect x="25" y="65" width="20" height="15" rx="3" fill="white" transform="rotate(-15 25 65)" />
  <rect x="50" y="60" width="20" height="15" rx="3" fill="white" />
  <rect x="70" y="55" width="20" height="15" rx="3" fill="white" transform="rotate(15 70 55)" />
  <path d="M50 85C50 82.2386 52.2386 80 55 80H85C87.7614 80 90 82.2386 90 85V90C90 92.7614 87.7614 95 85 95H55C52.2386 95 50 92.7614 50 90V85Z" fill="white" />
  <circle cx="60" cy="87.5" r="2.5" fill="#6200EE" />
  <circle cx="70" cy="87.5" r="2.5" fill="#6200EE" />
  <circle cx="80" cy="87.5" r="2.5" fill="#6200EE" />
</svg> 